<?xml version="1.0" encoding="utf-8"?>
<!-- Generator: Adobe Illustrator 15.0.0, SVG Export Plug-In . SVG Version: 6.00 Build 0)  -->
<!DOCTYPE svg PUBLIC "-//W3C//DTD SVG 1.1//EN" "http://www.w3.org/Graphics/SVG/1.1/DTD/svg11.dtd">
<svg version="1.1" id="图层_1" xmlns="http://www.w3.org/2000/svg" xmlns:xlink="http://www.w3.org/1999/xlink" x="0px" y="0px"
	 width="907.09px" height="935.43px" viewBox="0 0 907.09 935.43" enable-background="new 0 0 907.09 935.43" xml:space="preserve">
<g>
	<path fill="#1569A8" d="M463.965,887.928c-218.121,0-402.123-142.332-459.486-336.895C48.781,762.252,236.587,920.9,461.545,920.9
		c205.633,0,380.218-132.545,442.545-316.635C831.33,771.012,661.668,887.928,463.965,887.928z"/>
	<path fill="#3592D1" d="M189.568,698.678C43.518,553.039,15.883,334.875,108.112,166.297
		c-112.159,171.014-92.93,402.641,57.698,552.844c137.683,137.303,343.595,165.137,508.932,83.486
		C514.063,865.693,321.943,830.691,189.568,698.678z"/>
	<path fill="#35BAED" d="M138.892,388.434C138.891,206.373,258.353,52.792,421.652,4.913
		C244.37,41.89,111.217,198.648,111.219,386.414c0,171.633,111.257,317.37,265.765,369.383
		C237.03,695.072,138.892,553.449,138.892,388.434z"/>
	<path fill="#5EC5F1" d="M320.51,164.906C441.699,44.051,623.236,21.182,763.511,97.501
		C621.21,4.688,428.472,20.602,303.481,145.248c-114.25,113.933-137.407,284.326-69.469,421.141
		C181.533,433.426,210.662,274.449,320.51,164.906z"/>
	<path opacity="0.27" fill="#A3A19D" d="M885.813,425.728c0,167.306-135.845,302.761-303.217,302.761
		c-167.695,0-303.506-135.455-303.506-302.761s135.812-302.769,303.506-302.769C749.969,122.959,885.813,258.422,885.813,425.728z"
		/>
	<path fill="#1569A8" d="M859.911,425.737c0,152.272-123.622,275.55-275.955,275.55c-152.625,0-276.229-123.277-276.229-275.55
		c0-152.267,123.603-275.556,276.229-275.556C736.289,150.182,859.911,273.47,859.911,425.737z"/>
	
		<radialGradient id="SVGID_1_" cx="455.3672" cy="339.2656" r="197.2759" gradientTransform="matrix(1.3126 0 0 1.309 -13.4041 -16.6587)" gradientUnits="userSpaceOnUse">
		<stop  offset="0" style="stop-color:#4CB7E9"/>
		<stop  offset="0.3106" style="stop-color:#4AB5E8"/>
		<stop  offset="0.5117" style="stop-color:#45AFE4"/>
		<stop  offset="0.6818" style="stop-color:#3CA5DE"/>
		<stop  offset="0.8346" style="stop-color:#2E96D4"/>
		<stop  offset="0.9745" style="stop-color:#1A84C8"/>
		<stop  offset="1" style="stop-color:#1580C5"/>
	</radialGradient>
	<path fill="url(#SVGID_1_)" d="M843.144,427.425c0,142.754-115.895,258.334-258.702,258.334
		c-143.087,0-258.967-115.58-258.967-258.334c0-142.751,115.879-258.334,258.967-258.334
		C727.249,169.091,843.144,284.674,843.144,427.425z"/>
	<g>
		<path fill="#FFFFFF" d="M454.328,268.117c0,0-3.293,2.502-3.524,4.024c-0.311,1.521,1.229,5.025,1.229,5.025l5.526-5.682
			l1.589-2.119l1.423-1.248l3.031,1.472l6.869-7.999c0,0,4.014,5.933,2.373-2.065l2.505-0.616l1.446-1.457l2.968,1.63l5.635-3.579
			l2.214,3.406l5.872-1.204l3.797-2.066l2.989-1.661l1.303-2.552h4.499l2.372,1.519c0,0,1.451,5.726,6.624,2.175l2.243-2.663
			l3.623-0.824l-6.239-3.693h2.805l-0.243-2.06h3.541c0,0,2.985,8.582,7.227,2.179c4.361-6.431-2.736-7.186-2.736-7.186l1.065-3.535
			l4.838,0.98c0,0,2.784,7.563,5.292-2.009h3.54l1.124-2.274l1.748-1.211l1.36-3.016l2.357-0.745l2.623-1.345l-2.358-3.044
			c0,0,3.381-2.095,12.402-5.374c8.985-3.225-0.008-5.194-1.202-5.211c0,0,0.495-1.425-0.604-2.822c0,0,6.046,0.561,4.575-3.696
			c-1.494-4.13-5.533-1.879-5.533-1.879l-3.858,0.43l-0.256-1.784l-5.788,1.884l-0.631-4.143l-4.403-1.161l1.488-3.014
			c0,0,2.508-1.939-2.012-1.399c0,0,8.059-4.492-1.475-4.866c-9.212-0.441-11.387-1.788-11.387-1.788l-5.608,4.053
			c0,0,0.712,1.513,1.805,1.513l-5.119,3.557l0.054,3.259l-2.014,2.351l-2.021-0.52l-6.091,3.699l2.589,2.755l-0.301,2.165
			l-11.878,9.487c0,0-12.193,1.796-2.56,2.265l0.487,2.375l-7.021,4.247l-3.537,0.195v1.573h1.875l-6.454,4.028l-3.098-2.014
			c0,0-2.016,0.489-2.935,2.501l-3.604,0.545l-5.115,5.002l1.574,2.783l-5.113,0.212l-4.962,7.065l-4.132,4.026l-0.441,3.044
			l-2.612,2.014l0.053,3.098l-2.994,0.486l0.93,1.521h1.526L454.328,268.117z"/>
		<path fill="#FFFFFF" d="M352.522,311.864c0,0,4.83,1.018,14.143-13.667l4.888,0.151l2.589-2.507l4.175,0.427
			c0,0-5.281,5.98-5.013,8.035c0.44,2.049,5.158,3.518,5.158,3.518s6.267-1.578,8.998-6.776c2.792-5.096-5.114,0.451-5.114,0.451
			l-0.44-5.229l3.048-5.63l3.044-5.984l1.97,1.507c0,0,10.452-6.64-5.014-4.095l3.107-1.944l2.318-0.889l3.107,0.889l2.582-2.045
			v8.053c0,0,1.524,5.85,6.099,2.556c4.694-3.107,3.13,3.518-4.839,4.781l-4.852,6.328l-0.44,5.045l4.732,6.083l3.628-8.687
			l12.337-16.105c0,0-1.194-9.944,5.622-8.964l3.296-7.921l1.208-6.629l6.095-7.487l3.73-3.485h5.322l-1.407-5.288l-10.145,2.449
			l6.23-4.643l2.811-2.114l2.511-0.825l1.08-3.064l6.814-10.071c0,0,2.463-3.495-5.833,2.095l-11.112,5.526l-11.104,9.549
			l-3.592-1.096l-10.562,7.161l8.625-9.274l5.358-1.717c0,0,2.411-1.855,3.939-6.345c0,0,7.068-6.06,13.166-9.673
			c0,0,8.734-5.411,10.537-7.922l12.361-3.445v1.528l-4.98,2.04l-1.527,4.959l9.713-7.447l4.005-0.292l0.807-1.107l1.432,1.847
			l5.648-1.185c0,0,3.668-2.894,10.032-3.566c6.373-0.572-11.716,8.886-11.716,8.886s-0.894,3.463-6.203,3.46l-2.476,1.729
			l-5.438,1.771c0,0,1.282-8.03-3.995,0l-9.866,15.087h7.623l6.536-8.057l5.013-4.511l1.731,2.144l-6.201,5.477l9.586-1.723
			c0,0,6.912-3.341,9.002-9.5l2.107-1.423v-3.497h5.607c0,0,2.664-1.756,0-3.316c0,0,7.089-1.714,1.24-3.225
			c0,0,10.732-3.18,6.884-6.755c0,0,2.639-3.83-0.836-6.418c-6.051-4.512,7.649-7.334,7.649-7.334s3.739,5.354,9.58-1.42
			c5.813-6.878,3.104-10.35,7.901-9.919l2.441,6.106l4.619-4.29v-3.341v-3.504c-68.861,15.632-112.156,58.764-112.156,58.764
			C368.55,271.323,352.522,311.864,352.522,311.864z"/>
		<path fill="#FFFFFF" d="M495.39,296.455l-3.804-5.716c0,0-4.36-2.796,3.804-3.749c0,0,2.441-1.375-2.38-1.375
			c0,0,1.94-1.232,3.054-3.686c2.009-4.419,5.131-1.048,4.607,3.484l1.529,0.785c0,0,3.318-2.539,3.009,1.222l4.014,1.073
			l3.117-1.504c0,0,6.506,3.078,0,6.013c0,0-0.584,5.584-5.498,3.452C506.842,296.455,499.107,304.377,495.39,296.455z"/>
		<path fill="#FFFFFF" d="M517.725,345.875l-6.128,0.343c0,0-4.851,1.726-0.416-5.098c0,0-0.143-3.612-3.271,0.112
			c0,0-0.259-1.558,0.061-3.78c0.362-2.51,2.445-4.604,5.375-1.506l1.719-0.574c0,0,0.167-1.213,2.584-1.522l3.487-2.307
			l0.914-3.309c0,0,4.076-1.647,4.254,3.587c0,0,3.912,4.033-0.941,6.157C525.362,337.979,521.952,346.229,517.725,345.875z"/>
		<path fill="#FFFFFF" d="M649.353,282.227c0,0-6.432,1.826-10.268-4.249c0,0,2.081-4.001-1.903-4.001c0,0-0.558-2.513,7.339-2.021
			l3.35-4.103c0,0,2.288-4.547-4.604-4.986c0,0-10.142-5.582-14.871-2.57l-5.854-0.963l-3.335-4.039l-9.322-2.066l0.402,4.436
			l-6.39,2.875c0,0-9.205-1.126-5.919,6.649l-3.343,1.693l-1.506,2.179l-2.918,3.181l-2.165,2.257l1.105,4.542
			c0,0-6.703,1.121-10.194,12.046c0,0-1.975,1.904-7.014,2.028v3.061h-5.101c0,0-3.428,2.467,4.549,2.467v1.533h-5.281l2.759,6.021
			l2.786-0.982l-0.474,2.024l-5.071,3.065c0,0-6.633,4.799,2.683,8.356l6.161,0.184l6.576-7.063c0,0,2.579,5.038,4.059,5.309
			c0,0,0.493,17.78,2.577,8.816l1.429,2.523l-2.277,2.308c0,0-4.869,2.298,0.303,1.326l1.975,1.932h5.097l3.618-8.007l5.699-1.566
			l-2.193-7.55l-1.805-0.659v-1.367l3.306-1.1l3.48-0.977l-1.523-1.158c0,0,4.129-3.104-0.562-6.432c0,0-2.947-2.209-3.494-9.002
			c-0.744-6.62,4.056-7.112,4.056-7.112l6.579-4.279l-3.222-1.803l0.75-2.513l-1.035-1.165c0,0,5.309-5.35,10.698,1.217
			l-1.778,0.987c0,0-0.863,6.626-5.901,9.63c0,0-1.536,13.149,6.131,14.8l1.094,1.791l2.828-1.063c0,0,3.594,0.847,6.166-3.973
			c0,0,4.553-3.087,9.04,0.495c0,0-13.165,3.615-14.358,6.84c-1.185,3.226-0.848,5.312,3.653,5.804l0.419,5.087l-2.316,1.481
			c0,0-10.366-12.508-5.537,11.594l-4.604,0.999l-0.226,3.01c0,0-6.351-6.021-11.839,1.831c0,0-6.135,0.931-7.065,2.983
			c0,0-5.861-7.526-8.171-1.193l-5.049,0.431l-2.573-4.542l-0.937-4.267l1.291-1.764l1.678-1.034l2.029-0.559
			c0,0-2.015-12.473-7.852-0.816c0,0-6.298,0.507,0.556,9.425v3.556c0,0-4.331,0.285-6.124,3.278c0,0-6.184-2.292-7.309,1.318
			h-2.521v3.222c0,0-3.512,1.27-2.211,5.264c0,0-5.654-1.97-5.654,2.077h-4.535v5.435c0,0-6.789-0.707-7.773,3.837h-3.35
			c0,0-6.299-6.259-2.052,1.35l-4.532,2.279l-1.656-2.502l-7.212,0.928c0,0,0.095,10.283,7.212,6.8l0.341,2.567h3.083l-2.473,2.03
			c0,0,7.736,13.575-0.951,20.905c0,0-7.348-5.486-11.767-1.25l-10.863-3.291l-1.875-3.702l-6.451,1.952c0,0-5.521,2.067,0,7.901
			c0,0-3.277,6.34-1.956,10.001l-5.117,6.598c0,0-5.128,15.687,9.052,16.168l5.854,4.799l12.205,1.492l2.768,0.045l2.744-3.374
			l4.157-2.183l1.249-3.073l2.729-2.094l0.075-2.994v-3.012l3.089-1.8c0,0,0.576-6.086,5.236-6.25c0,0,13.528-0.807,9.375-10.622
			c0,0,2.16-2.789,7.932-2.515c0,0,3.877,9.086,11.444-0.753l3.297-0.776l1.746-3.014c0,0,5.093-2.518,8.194,6.077
			c0,0-1.07,6.02,4.418,6.571l6.556,5.627l4.29,0.962c0,0,0.242,1.709,4.338,3.214c2.353,0.861,2.129,4.263,2.129,4.263l2.585-0.144
			c0,0,8.006,10.272-7.237,11.753c0,0-7.917-2.483-8.869-1.189c-2.14,2.909,3.642,5.18,3.642,5.18l6.204,2.081
			c0,0,7.34,8.409,5.163-1.038c0,0-3.238-5.475,0.989-4.49c0,0,5.045,2.96,5.353-5.523c0,0,5.853-1.549-0.308-5.152
			c0,0-0.494-9.811,6.083-2.029c0,0,7.849,5.373,0-5.026c0,0-14.692-3.23-19.737-11.858c0,0,0.495-6.762-6.576-8.24
			c-7.075-1.332,4.166-9.693,4.166-9.693s4.867,2.032,5.971,4.663c0,0-1.859,10.759,11.313,9.572l10.453,16.101l9.103,11.663
			l1.061,4.835l2.375,1.375l0,0l2.439,1.832l0,0l0.911,0.489l0.262,0.471l2.002,0.41l0,0l1.896,2.987l1.532-2.57l-3.868-5.683
			l2.249-2.496l0,0c0,0,2.853-4.112-2.924-4.718c0,0,6.756-2.029-1.852-7.61l-0.209-2.026l2.061,0.052c0,0,6.708,6.074,4.241,0
			l2.041,0.444l0.426-1.482l-2.872-1.273c0,0,4.48-0.207,4.949-2.979c0,0,4.809-1.826,5.258,5.734
			c0.475,7.539,2.803,8.642,3.246,3.831c0,0,2.626-1.187,1.09,4.27l-2.29,1.208l-0.731,2.814l5.048-0.519l-0.646,2.587l5.527,1.376
			l-3.012,3.595l3.706,1.158l1.446-3.626l5.644,0.541l-3.818,2.3l7.054,0.715l1.316-5.262h5.978c0,0,5.861,7.05,9.097-1.359
			c0,0-0.728-3.503,3.816-3.011c4.521,0.493,3.318-2.692,3.318-2.692s3.881,11.286,3.34,11.833l-1.836,21.184
			c0,0-14.171,0.692-16.403,3.505c-2.262,2.853-8.351,7.065-8.351,7.065l-17.253-2.018c0,0-8.196-2.467-12.711-1.051
			c0,0-2.953-9.896-15.18,0.02l-0.69,8.697l-1.821,4.916c0,0-1.956,2.518-4.481,0c-2.521-2.52-5.957-6.9-13.242-3.842l-4.466-6.18
			c0,0-3.361-9.277-11.305-4.025c0,0-4.372,2.986-5.909,1.061c-1.53-1.791-4.497-5.896-8.555-5.189
			c-4.058,0.546-2.808-5.17,3.512-6.824c5.023-1.315,0.256-10.661,0.256-10.661v-4.133l-7.328-1.045l-5.203,2.938l-7.41-0.422
			c0,0-3.988-5.26-6.633,1.534c-2.517,6.475-4.176-12.132-28.24,1.742c-0.195,0.114-0.377,0.247-0.597,0.28l-7.842,3.508
			l-5.315-3.065l-2.154,1.037l-7.524-5.213c0,0-4.145-3.789-7.258,4.664l-2.796,4.687c0,0-21.382,2.152-17.162,19.569
			c0,0-6.861,5.928-12.49,8.209c-5.4,2.193-7.246-1.588-7.741,4.602c0,0-7.492-0.217-8.166,9.104l-6.524,3.377v1.154h0.92
			l-5.523,6.346l-3.379,8.006l3.602,4.842c0,0-3.665-0.256,1.174,9.928c0,0-4.416,4.064-2.93,9.031c0,0,1.608,3.58-0.888,10.527
			c0,0-6.629,8.633,7.025,10.227c0,0-5.278,2.387,0.987,5.389c0,0,5.884,8.955,9.855,17.049l8.288,10.336l5.15-0.043l9.358,12.1
			c0,0,20.906,0.115,29.023,2.953c8.345,2.918,16.227,0,16.227,0h22.806c0,0,3.017,3.672,5.593,3.117c0,0,2.313,12.051,8.5,4.055
			l9.207,2.889l-0.59-3.381l2.019,0.385l2.719,2.379l3.364,1.285l1.473,15.248l-3.497-5.719l-3.448,7.607l7.503,6.566l10.141,6.057
			l1.027,2.996l5.884,5.99c0,0,1.204,2.445-1.319,2.445l3.002,3.135c0,0-1.966,2.365-5.31,2.783c0,0-2.257,2.26-2.032,6.252
			c0,0-5.82,4.65,1.369,6.15c0,0,6.058,1.018,8.563,4.012l11.063,2.115c0,0,30.036-2.602,58.198-11.783l20.074-8.287l2.498-5.256
			c0,0,29.585-11.473,33.813-27.857v-6.449l-4.71-4.016c0,0,58.034-45.361,61.485-84.908c0,0,0.52-13.992-5.857-1.877
			c0,0-12.166,9.146-13.83,13.244l-17.1,7.922c0,0,1.38-7.576-8.61-14.531c0,0-5.994-17.143-13.878-13.713l-2.151-10.551
			l-2.647-0.988l-1.899-3.445l-4.146-2.926c0,0,5.502-7.635-1.268-7.635c-6.776,0-13.236-14.926-13.236-14.926
			s6.132,0.307,8.27-5.053c0,0,9.176,12.664,22.471,20.551c0,0-2.892,13.33,9.581,14.422c0,0,3.935,7.559,6.755,8.033
			c0,0-0.352,8.381,4.608,10.547l1.247,5.684l5.866,2.066c0,0,7.496-12.102,12.096-11.688c4.631,0.467,4.631-10.695,11.35-15.734
			c6.614-5.033,5.045-10.549,5.045-10.549s7.201-4.76,9.132-13.369c1.693-7.545,9.963-25.751,9.963-25.751l-10.914-6.039
			l-2.557-4.004l-3.804,2.243c0,0,0.698,9.623-11.092,12.848c0,0-4.613-7.9-13.891-11.419c0,0-3.164-1.429-4.944-5.97
			c0,0,1.263-10.623,12.831-5.2l10.23,6.154l8.203-11.026l4.543,4.098c0,0,17.61-3.616,21.131-17.319l7.014-1.566l7.568-1.89v13.791
			c0,0,2.449,34.771,11.022,32.583c0,0,10.342-49.926-0.965-95.827c0,0-8.631-64.533-54.987-115.001
			c0,0-52.332-69.397-144.128-87.061c-4.57-0.806-9.138-1.813-13.858-2.613l11.532,6.903c0,0,10.059,12.97,17.159,9.991
			c0,0,7.418-0.937,11.985-0.652l-2.517,7.327l3.917,2.167c0,0-30.886-2.73-11.665,7.116c0,0,4.132,9.312,10.736,8.832
			c6.616-0.472-17.262,7.848,11.91,11.767l-6.039,2.87l-5.546,1.217l2.203,3.881l10.089,6.542c0,0-11.688,0.382-11.688,4.058
			l4.942,3.972c0,0-4.942,0.801-5.871,3.541c0,0-7.641-5.81-9.691,10.039l-4.96,3.95l0.953,9.984
			C652.332,275.693,635.188,274.931,649.353,282.227z"/>
		<path fill="#FFFFFF" d="M528.695,358.897c0,0,3.475,4.495,6.603,0c2.924-4.209,5.761,1.526,5.761,1.526s2.508,2.061,3.598-5.999
			l3.057-1.48c0,0,8.637-4.136-1.634-6.104c0,0-2.742-16.86-10.585-18.157l-0.196-1.785c0,0,18.919-5.875,0-6.932l4.232-2.459
			c0,0-2.095-7.043-5.524-2.439l-1.019,2.042h-2.042l-0.136,4.463l-2.114,2.877l-1.34,5.953l3.806-3.504l2.845,16.03
			c0,0-11.672-0.367-5.093,5.202c0,0-10.789,2.136-2.018,3.487c0,0,2.139,6.261,6.563,1.039l-1.26,3.499
			C532.199,356.155,517.778,358.685,528.695,358.897z"/>
		<path fill="#FFFFFF" d="M639.45,223.989c0,0-2.28-12.266,5.489-9.855l-0.417,9.855l1.729,1.433l1.263,7.153
			c0,0,4.093,7.092,10.732,6.705c6.851-0.451,3.477,3.353-0.541,2.372c-3.98-0.862-13.851,2.315-14.492-2.717L639.45,223.989z"/>
		<path fill="#FFFFFF" d="M572.85,423.133c0,0,0.099-1.333,2.752-1.199l-1.172,2.172l0.387,0.772l-1.15,2.57
			c0,0-0.094,3.072,2.214,4.23c2.159,1.281,0.316,1.715-0.67,0.638c-1.149-1.028-3.625-1.75-2.894-3.487L572.85,423.133z"/>
	</g>
	<path fill="#FFFFFF" d="M569.475,412.82c0,0-0.349,0.774-0.519,1.636c-0.172,0.861-0.347,1.291,0.258,2.238
		c0.605,0.947,0.865,1.291,0.865,1.896c0,0.602-1.036,2.064,0,2.582c1.038,0.517,4.334,0.602,4.453,0
		c0.12-0.602-0.052-1.291-0.825-2.325c-0.778-1.034-2.15-2.84-2.024-3.445C571.806,414.8,571.199,412.476,569.475,412.82z"/>
	<path fill="#FFFFFF" d="M603.237,453.119c0,0,1.122,0.258,1.555,0.602c0.433,0.345,1.031,1.292,0.604,1.981
		c-0.43,0.69-0.945,0.604-1.383,0c-0.432-0.603,0.09-1.379-0.775-1.893C602.371,453.291,603.237,453.119,603.237,453.119z"/>
	<path fill="#FFFFFF" d="M642.526,453.119h-2.678l-0.948,1.534c0,0,0.604,0.706,1.813,0.964c1.21,0.255,2.333,0.602,3.451,1.034
		c1.124,0.429,3.028,1.031,4.321,0.945c1.293-0.085,4.748-0.171,5.008-0.43c0.26-0.261,0-0.979,0-0.979s-0.518-0.905-2.419-0.825
		c-1.9,0.083-2.589-0.036-3.455-0.709C646.755,453.979,642.526,453.119,642.526,453.119z"/>
	<path fill="#FFFFFF" d="M624.047,429.266c0.348,0.861,0.609,1.894,0.609,1.894h0.513l0.521-0.428l-0.823-1.466v-1.204
		L624.047,429.266z"/>
	<polygon fill="#FFFFFF" points="626.376,432.367 625.69,433.401 626.03,434.691 626.376,435.984 627.156,435.296 628.021,435.38 
		629.313,435.209 628.625,434.605 627.502,434.174 	"/>
	<polygon fill="#FFFFFF" points="628.709,437.792 628.709,439.943 629.313,441.323 629.745,441.323 630.18,441.323 631.039,441.323 
		632.077,441.323 631.126,440.634 630.393,440.203 629.832,439.558 629.832,438.654 	"/>
	<polygon fill="#FFFFFF" points="648.831,444.852 648.831,446.315 650.386,447.09 650.386,445.369 	"/>
	<polygon fill="#FFFFFF" points="653.605,450.363 654.615,450.363 655.392,450.363 655.913,449.33 655.913,447.864 655.22,447.864 
		654.759,449.503 	"/>
	<polygon fill="#FFFFFF" points="657.379,453.119 657.379,454.653 658.243,455.013 659.106,455.013 659.106,454.653 
		658.243,454.066 	"/>
	<polygon fill="#FFFFFF" points="667.136,444.165 667.136,445.831 668.344,445.971 669.21,445.831 669.21,445.069 	"/>
	<polygon fill="#FFFFFF" points="646.93,422.723 647.707,422.723 648.309,422.723 648.831,422.38 647.88,421.259 	"/>
	<path fill="#FFFFFF" d="M650.386,423.411l-0.776,1.551c0,0,0.341,1.117,0,1.375c-0.347,0.262,0,1.088,0,1.088l0.776,0.636h0.517
		v-1.205l0.344-1.119v-0.432l0.696-1.205v-0.947L650.386,423.411z"/>
	<polygon fill="#FFFFFF" points="645.117,424.358 645.117,425.605 645.719,426.166 646.255,425.737 646.93,425.264 646.255,424.358 
			"/>
	<path fill="#FFFFFF" d="M654.184,443.474c0,0-0.084,0.947,0,1.121c0.085,0.172,0.575,0.474,0.575,0.474l0.633-0.217
		L654.184,443.474z"/>
	<path fill="#FFFFFF" d="M657.379,439.168c0.346,0.344,0.864,1.638,0.864,1.638l0.863,1.12l1.12,0.516v-0.516l-0.347-1.12
		l-0.258-0.862L657.379,439.168z"/>
	<polygon fill="#FFFFFF" points="661.353,444.271 662.127,444.852 663.253,445.069 663.942,445.069 664.63,444.165 663.512,443.474 
			"/>
</g>
</svg>
